<svg width="91" height="30" viewBox="0 0 91 30" fill="none" xmlns="http://www.w3.org/2000/svg">
<path d="M14.3008 10.6914H0.859375V9.28516H14.3008V10.6914ZM13.3633 17.1719C13.3633 18.0312 13.1055 18.8438 12.5898 19.6094C12.1133 20.3203 11.4844 20.9023 10.7031 21.3555C9.92188 21.8008 9.19922 22.0234 8.53516 22.0234C7.88672 22.0234 7.07812 21.6602 6.10938 20.9336C5.64062 20.582 4.95312 19.9766 4.04688 19.1172V29.0547L2.17188 28.0703V12.5664H4V15.4258L4.71484 14.6758C6.36328 12.9492 7.69922 12.0859 8.72266 12.0859C9.83203 12.0859 10.8906 12.6602 11.8984 13.8086C12.875 14.9258 13.3633 16.0469 13.3633 17.1719ZM12.2031 15.8125C12.2031 15.2188 11.8945 14.6484 11.2773 14.1016C10.9727 13.8281 10.5859 13.6914 10.1172 13.6914C9.19531 13.6914 8.05078 14.25 6.68359 15.3672C5.27734 16.5156 4.57422 17.5352 4.57422 18.4258C4.57422 18.9492 5.0625 19.4102 6.03906 19.8086C6.47656 19.9883 6.90234 20.0781 7.31641 20.0781C8.67578 20.0781 9.85547 19.5547 10.8555 18.5078C11.7539 17.5703 12.2031 16.6719 12.2031 15.8125ZM26.582 10.6914H23.9453V13.9141C23.9453 13.9844 24.2578 14.332 24.8828 14.957C25.3594 15.5352 25.5977 16.3633 25.5977 17.4414C25.5977 19.2305 24.8047 20.5547 23.2188 21.4141C22.4688 21.8203 21.6523 22.0234 20.7695 22.0234C19.4883 22.0234 18.168 21.457 16.8086 20.3242C15.3867 19.1367 14.6758 17.8477 14.6758 16.457C14.6758 15.8164 14.9062 15.1523 15.3672 14.4648C15.7812 13.8477 16.2812 13.3359 16.8672 12.9297C17.5703 12.4453 18.418 12.2031 19.4102 12.2031C19.957 12.2031 20.7656 12.3477 21.8359 12.6367C21.8828 12.6367 21.9062 12.6055 21.9062 12.543V10.6914H13.8672V9.28516H26.582V10.6914ZM23.875 15.8828C23.875 14.7812 23.3906 14.043 22.4219 13.668C22.0625 13.5273 21.7539 13.457 21.4961 13.457C20.5273 13.457 19.4844 13.8906 18.3672 14.7578C17.0625 15.7734 16.4102 17.0664 16.4102 18.6367C16.4102 19.3711 16.832 19.9727 17.6758 20.4414C18.0586 20.6523 18.4453 20.7578 18.8359 20.7578C19.8047 20.7578 20.8672 20.2891 22.0234 19.3516C23.2578 18.3516 23.875 17.1953 23.875 15.8828ZM38.1133 10.6914H26.2656V9.28516H38.1133V10.6914ZM37.1406 14.8984C37.1406 15.3594 36.8633 15.8789 36.3086 16.457C35.8398 16.9492 35.3477 17.3164 34.832 17.5586L33.0742 15.5664C33.6055 15.5195 34.1094 15.3242 34.5859 14.9805C35.1328 14.5898 35.4062 14.1445 35.4062 13.6445C35.4062 13.3789 35.2344 13.1523 34.8906 12.9648C34.5938 12.793 34.3008 12.707 34.0117 12.707C33.4102 12.707 32.7656 12.9961 32.0781 13.5742C30.6797 14.7461 29.9805 16.043 29.9805 17.4648V22.4336L27.7305 21.2617V12.5898H30.0039V13.4805C30.3398 13.1445 31.0352 12.793 32.0898 12.4258C32.6055 12.2461 33.1367 12.1562 33.6836 12.1562C34.8164 12.1562 35.7773 12.5898 36.5664 13.457C36.9492 13.8789 37.1406 14.3594 37.1406 14.8984ZM48.2852 10.6914H42.3555V20.125C42.3555 20.3906 42.4414 20.6484 42.6133 20.8984C42.793 21.1719 43.0117 21.3086 43.2695 21.3086C44.4336 21.3086 45.0156 20.1055 45.0156 17.6992L47.3711 19.0469C46.4727 21.0391 45.082 22.0312 43.1992 22.0234C42.1055 22.0156 41.2539 21.5156 40.6445 20.5234C40.3789 20.0938 40.2461 19.6641 40.2461 19.2344V10.6914H37.7969V9.28516H40.2461V5.34766L42.3555 6.8125V9.28516H48.2852V10.6914ZM55.9141 10.6914H52.0234V22.0938C51.9453 22.0938 51.2656 21.7891 49.9844 21.1797V10.6914H47.9922V9.28516H49.8906C49.8906 9.09766 49.7109 8.75391 49.3516 8.25391L48.6602 7.29297C48.4648 6.94922 48.3672 6.57031 48.3672 6.15625C48.3672 5.71875 48.543 5.25391 48.8945 4.76172C49.207 4.32422 49.5703 3.97266 49.9844 3.70703C50.5156 3.37109 51.1289 3.20312 51.8242 3.20312C53.2539 3.20312 54.2969 3.69922 54.9531 4.69141C55.2578 5.15234 55.4414 5.69141 55.5039 6.30859C54.8086 5.23047 53.9453 4.69141 52.9141 4.69141C52.0625 4.69141 51.4141 5.02344 50.9688 5.6875C50.7578 6 50.6523 6.32422 50.6523 6.66016C50.6523 7.19141 51.0781 7.84766 51.9297 8.62891C51.9922 8.80078 52.0234 9.01953 52.0234 9.28516H55.9141V10.6914ZM68.2305 10.6914H65.5938V13.9141C65.5938 13.9844 65.9062 14.332 66.5312 14.957C67.0078 15.5352 67.2461 16.3633 67.2461 17.4414C67.2461 19.2305 66.4531 20.5547 64.8672 21.4141C64.1172 21.8203 63.3008 22.0234 62.418 22.0234C61.1367 22.0234 59.8164 21.457 58.457 20.3242C57.0352 19.1367 56.3242 17.8477 56.3242 16.457C56.3242 15.8164 56.5547 15.1523 57.0156 14.4648C57.4297 13.8477 57.9297 13.3359 58.5156 12.9297C59.2188 12.4453 60.0664 12.2031 61.0586 12.2031C61.6055 12.2031 62.4141 12.3477 63.4844 12.6367C63.5312 12.6367 63.5547 12.6055 63.5547 12.543V10.6914H55.5156V9.28516H68.2305V10.6914ZM65.5234 15.8828C65.5234 14.7812 65.0391 14.043 64.0703 13.668C63.7109 13.5273 63.4023 13.457 63.1445 13.457C62.1758 13.457 61.1328 13.8906 60.0156 14.7578C58.7109 15.7734 58.0586 17.0664 58.0586 18.6367C58.0586 19.3711 58.4805 19.9727 59.3242 20.4414C59.707 20.6523 60.0938 20.7578 60.4844 20.7578C61.4531 20.7578 62.5156 20.2891 63.6719 19.3516C64.9062 18.3516 65.5234 17.1953 65.5234 15.8828ZM73.2109 10.6914H71.9688V9.28516H73.2109V10.6914ZM69.2031 10.6914H67.8672V9.28516H69.2031V10.6914ZM71.582 7.86719V22.293C71.5039 22.2695 71.4023 22.2266 71.2773 22.1641L70.668 21.8477C69.9727 21.4883 69.6055 21.3086 69.5664 21.3086V7.89062C69.5664 7.07031 69.4062 6.19922 69.0859 5.27734C68.6406 3.98828 67.9492 2.81641 67.0117 1.76172L66.2734 0.929688H68.7695C70.0664 2.22656 70.918 3.81641 71.3242 5.69922C71.4961 6.49609 71.582 7.21875 71.582 7.86719ZM76.9844 8.05469C76.9531 8.08594 76.8633 8.10156 76.7148 8.10156C76.5898 8.10156 76.4805 8.08594 76.3867 8.05469L75.625 6.49609C75.3125 6.00391 74.8867 5.67188 74.3477 5.5C73.8164 5.32031 73.4883 5.125 73.3633 4.91406C73.2461 4.55469 73.0195 4.00391 72.6836 3.26172V2.99219H73.1406C73.7422 3.17969 74.2305 3.35547 74.6055 3.51953C75.2227 3.79297 75.6367 4.10937 75.8477 4.46875C75.9648 4.66406 76.1445 5.16406 76.3867 5.96875C76.6133 6.72656 76.8047 7.25391 76.9609 7.55078C76.9766 7.69141 76.9844 7.85937 76.9844 8.05469ZM77.6758 10.6914H72.9062V9.28516H77.6758V10.6914ZM76.3398 22.2695L74.3711 21.1797V12.1328H76.3398V22.2695ZM90.0977 10.6914H87.4609V13.9141C87.4609 13.9844 87.7734 14.332 88.3984 14.957C88.875 15.5352 89.1133 16.3633 89.1133 17.4414C89.1133 19.2305 88.3203 20.5547 86.7344 21.4141C85.9844 21.8203 85.168 22.0234 84.2852 22.0234C83.0039 22.0234 81.6836 21.457 80.3242 20.3242C78.9023 19.1367 78.1914 17.8477 78.1914 16.457C78.1914 15.8164 78.4219 15.1523 78.8828 14.4648C79.2969 13.8477 79.7969 13.3359 80.3828 12.9297C81.0859 12.4453 81.9336 12.2031 82.9258 12.2031C83.4727 12.2031 84.2812 12.3477 85.3516 12.6367C85.3984 12.6367 85.4219 12.6055 85.4219 12.543V10.6914H77.3828V9.28516H90.0977V10.6914ZM87.3906 15.8828C87.3906 14.7812 86.9062 14.043 85.9375 13.668C85.5781 13.5273 85.2695 13.457 85.0117 13.457C84.043 13.457 83 13.8906 81.8828 14.7578C80.5781 15.7734 79.9258 17.0664 79.9258 18.6367C79.9258 19.3711 80.3477 19.9727 81.1914 20.4414C81.5742 20.6523 81.9609 20.7578 82.3516 20.7578C83.3203 20.7578 84.3828 20.2891 85.5391 19.3516C86.7734 18.3516 87.3906 17.1953 87.3906 15.8828Z" fill="url(#paint0_linear_1_2)"/>
<defs>
<linearGradient id="paint0_linear_1_2" x1="4.5" y1="17.5" x2="86" y2="21" gradientUnits="userSpaceOnUse">
<stop/>
<stop offset="1" stop-color="#D40000"/>
</linearGradient>
</defs>
</svg>
